<?xml version="1.0" standalone="no"?><!DOCTYPE svg PUBLIC "-//W3C//DTD SVG 1.1//EN" "http://www.w3.org/Graphics/SVG/1.1/DTD/svg11.dtd"><svg t="1744820033870" class="icon" viewBox="0 0 1024 1024" version="1.1" xmlns="http://www.w3.org/2000/svg" p-id="2257" xmlns:xlink="http://www.w3.org/1999/xlink" width="200" height="200"><path d="M0 512a512 512 0 1 0 1024 0A512 512 0 1 0 0 512z" fill="#2c2c2c" p-id="2258"></path><path d="M608.802 249.788c40.516-51.44 31.164-107.52 28.058-112.197-4.677-4.676-65.434 4.677-107.52 60.758-37.41 51.439-37.41 107.52-32.734 112.23 4.676 4.676 65.468 0 112.196-60.791zM710.11 511.59c-4.676-74.786 65.468-121.514 79.496-130.9v-4.677s-60.791-74.786-149.64-70.11c-56.081 4.676-84.139 32.7-121.515 32.7-46.762 0-88.849-32.7-140.288-32.7-42.086 0-163.635 37.376-172.988 196.335-7.782 158.959 104.448 307.03 146.5 335.087 42.087 28.023 70.145 18.67 116.873-4.676 23.382-14.03 98.202-18.706 140.288 9.352 51.405 18.671 126.225 4.642 210.364-182.34-10.923 1.536-104.414-21.846-109.09-148.07z" fill="#FFFFFF" p-id="2259"></path></svg>